<?xml version="1.0" encoding="utf-8"?>
<!-- Generator: Adobe Illustrator 21.1.0, SVG Export Plug-In . SVG Version: 6.00 Build 0)  -->
<svg version="1.1" id="Layer_1" xmlns="http://www.w3.org/2000/svg" xmlns:xlink="http://www.w3.org/1999/xlink" x="0px" y="0px"
	 viewBox="0 0 170 34.7" style="enable-background:new 0 0 170 34.7;" xml:space="preserve">
<style type="text/css">
	.st0{fill:#3C43BF;}
</style>
<g>
	<path class="st0" d="M31.8,0.2L31.8,0.2c-0.3-0.2-0.7-0.2-0.9,0l-1.6,1.6c-0.1,0.1-0.2,0.3-0.2,0.5c0,0.2,0.1,0.4,0.3,0.5
		c3.8,3,6,7.6,6,12.4c0,8.7-7.1,15.9-15.9,15.9c-8.7,0-15.9-7.1-15.9-15.9c0-4.8,2.2-9.4,6-12.4c0.1-0.1,0.2-0.3,0.3-0.5
		c0-0.2-0.1-0.4-0.2-0.5L8,0.2C7.8,0,7.4-0.1,7.1,0.2C2.6,3.9,0,9.4,0,15.2c0,10.7,8.7,19.5,19.5,19.5c10.7,0,19.5-8.7,19.5-19.5
		C38.9,9.4,36.3,3.9,31.8,0.2z"/>
	<path class="st0" d="M19.5,27.3c3.1,0,6-1.2,8.3-3.3c0.1-0.1,0.2-0.3,0.2-0.5c0-0.2-0.1-0.4-0.2-0.5l-1.6-1.6
		c-0.3-0.3-0.7-0.3-0.9,0c-1.6,1.5-3.7,2.3-5.8,2.3c-4.7,0-8.6-3.8-8.6-8.6c0-4.7,3.8-8.6,8.6-8.6c2.1,0,4.2,0.8,5.8,2.3
		c0.3,0.2,0.7,0.2,0.9,0l1.6-1.6C27.9,7.2,28,7.1,28,6.9c0-0.2-0.1-0.4-0.2-0.5C25.5,4.2,22.5,3,19.5,3C12.8,3,7.3,8.5,7.3,15.2
		C7.3,21.9,12.8,27.3,19.5,27.3z"/>
	<path class="st0" d="M56,10.8h-2.8c-0.1,0-0.2,0.1-0.2,0.2v6.9c0,0.9-0.2,1.7-0.6,2.2c-0.4,0.5-1,0.8-1.7,0.8
		c-0.7,0-1.3-0.3-1.7-0.8c-0.4-0.5-0.6-1.3-0.6-2.2V11c0-0.1-0.1-0.2-0.2-0.2h-2.8c-0.1,0-0.2,0.1-0.2,0.2v7c0,1.9,0.5,3.3,1.6,4.3
		c1,1,2.4,1.5,4,1.5s3-0.5,4-1.5c1-1,1.6-2.5,1.6-4.3v-7C56.2,10.9,56.1,10.8,56,10.8z"/>
	<path class="st0" d="M64.9,10.5c-1.9,0-3.5,0.6-4.8,1.9c-1.3,1.3-2,2.9-2,4.8c0,1.9,0.7,3.5,1.9,4.8c1.3,1.2,2.9,1.9,4.9,1.9
		c2,0,3.7-0.8,5.2-2.5c0.1-0.1,0.1-0.2,0-0.3l-1.8-1.8c0,0-0.1-0.1-0.2-0.1c-0.1,0-0.1,0-0.2,0.1c-0.8,1-1.9,1.5-3.2,1.5
		c-0.9,0-1.7-0.3-2.4-1c-0.7-0.7-1-1.5-1-2.6c0-1.1,0.3-2,1-2.6c0.7-0.6,1.6-1,2.5-1c1.2,0,2.3,0.5,3.1,1.6c0,0.1,0.1,0.1,0.2,0.1
		c0.1,0,0.1,0,0.2-0.1l1.7-2c0.1-0.1,0.1-0.2,0-0.3C68.8,11.3,67,10.5,64.9,10.5z"/>
	<path class="st0" d="M78.2,10.5c-1.9,0-3.5,0.6-4.8,1.9c-1.3,1.3-2,2.9-2,4.8s0.7,3.5,2,4.8c1.3,1.3,2.9,1.9,4.8,1.9
		c1.9,0,3.5-0.6,4.8-1.9c1.3-1.3,2-2.9,2-4.8s-0.7-3.5-2-4.8C81.7,11.1,80.1,10.5,78.2,10.5z M80.6,19.9C80,20.6,79.2,21,78.2,21
		c-1,0-1.8-0.4-2.5-1.1c-0.7-0.7-1-1.6-1-2.7c0-1.1,0.3-2,1-2.7c0.7-0.7,1.5-1.1,2.5-1.1s1.8,0.4,2.5,1.1c0.7,0.7,1,1.6,1,2.7
		C81.7,18.2,81.3,19.1,80.6,19.9z"/>
	<path class="st0" d="M101.2,10.8h-3.7c-0.1,0-0.2,0.1-0.2,0.1l-3,6.4l-3-6.4c0-0.1-0.1-0.1-0.2-0.1h-3.8c-0.1,0-0.2,0.1-0.2,0.2
		v12.5c0,0.1,0.1,0.2,0.2,0.2h2.8c0.1,0,0.2-0.1,0.2-0.2v-6.9l2.9,6c0,0.1,0.1,0.1,0.2,0.1h1.7c0.1,0,0.2,0,0.2-0.1l3-6v6.9
		c0,0.1,0.1,0.2,0.2,0.2h2.8c0.1,0,0.2-0.1,0.2-0.2V11C101.5,10.9,101.4,10.8,101.2,10.8z"/>
	<path class="st0" d="M118.5,10.8h-3.7c-0.1,0-0.2,0.1-0.2,0.1l-3,6.4l-3-6.4c0-0.1-0.1-0.1-0.2-0.1h-3.8c-0.1,0-0.2,0.1-0.2,0.2
		v12.5c0,0.1,0.1,0.2,0.2,0.2h2.8c0.1,0,0.2-0.1,0.2-0.2v-6.9l2.9,6c0,0.1,0.1,0.1,0.2,0.1h1.7c0.1,0,0.2,0,0.2-0.1l3-6v6.9
		c0,0.1,0.1,0.2,0.2,0.2h2.8c0.1,0,0.2-0.1,0.2-0.2V11C118.8,10.9,118.7,10.8,118.5,10.8z"/>
	<path class="st0" d="M121.5,23.7h9.2c0.1,0,0.2-0.1,0.2-0.2V21c0-0.1-0.1-0.2-0.2-0.2h-6.2v-2.1h5.4c0.1,0,0.2-0.1,0.2-0.2v-2.4
		c0-0.1-0.1-0.2-0.2-0.2h-5.4v-2.1h6c0.1,0,0.2-0.1,0.2-0.2V11c0-0.1-0.1-0.2-0.2-0.2h-9c-0.1,0-0.2,0.1-0.2,0.2v12.5
		C121.3,23.6,121.4,23.7,121.5,23.7z"/>
	<path class="st0" d="M141.2,23.7h3.4c0.1,0,0.2,0,0.2-0.1c0-0.1,0-0.2,0-0.2l-3-4.2c1.5-0.7,2.3-2,2.3-4c0-1.5-0.4-2.6-1.3-3.3
		c-0.9-0.7-2.3-1-4.3-1h-4.7c-0.1,0-0.2,0.1-0.2,0.2v12.5c0,0.1,0.1,0.2,0.2,0.2h2.8c0.1,0,0.2-0.1,0.2-0.2v-3.8h1.6l2.7,3.9
		C141.1,23.7,141.2,23.7,141.2,23.7z M140.4,16.5c-0.3,0.3-0.9,0.4-1.8,0.4h-1.8v-3.2h1.9c0.8,0,1.4,0.1,1.7,0.3
		c0.3,0.2,0.4,0.6,0.4,1.2C140.8,15.8,140.7,16.2,140.4,16.5z"/>
	<path class="st0" d="M153,23.9c2,0,3.7-0.8,5.2-2.5c0.1-0.1,0.1-0.2,0-0.3l-1.8-1.8c0,0-0.1-0.1-0.2-0.1c-0.1,0-0.1,0-0.2,0.1
		c-0.8,1-1.9,1.5-3.2,1.5c-0.9,0-1.7-0.3-2.4-1c-0.7-0.7-1-1.5-1-2.6c0-1.1,0.3-2,1-2.6c0.7-0.6,1.6-1,2.5-1c1.2,0,2.3,0.5,3.1,1.6
		c0,0.1,0.1,0.1,0.2,0.1c0.1,0,0.1,0,0.2-0.1l1.7-2c0.1-0.1,0.1-0.2,0-0.3c-1.4-1.6-3.2-2.4-5.3-2.4c-1.9,0-3.5,0.6-4.8,1.9
		c-1.3,1.3-2,2.9-2,4.8c0,1.9,0.7,3.5,1.9,4.8C149.3,23.2,151,23.9,153,23.9z"/>
	<path class="st0" d="M169.8,20.8h-6.2v-2.1h5.4c0.1,0,0.2-0.1,0.2-0.2v-2.4c0-0.1-0.1-0.2-0.2-0.2h-5.4v-2.1h6
		c0.1,0,0.2-0.1,0.2-0.2V11c0-0.1-0.1-0.2-0.2-0.2h-9c-0.1,0-0.2,0.1-0.2,0.2v12.5c0,0.1,0.1,0.2,0.2,0.2h9.2c0.1,0,0.2-0.1,0.2-0.2
		V21C170,20.9,169.9,20.8,169.8,20.8z"/>
</g>
</svg>
